<svg xmlns="http://www.w3.org/2000/svg" xmlns:xlink="http://www.w3.org/1999/xlink" width="500" zoomAndPan="magnify" viewBox="0 0 375 374.999991" height="500" preserveAspectRatio="xMidYMid meet" version="1.0"><path fill="rgb(0%, 0%, 0%)" d="M 0.171875 137.921875 C 0.171875 192.707031 44.621094 237.113281 99.449219 237.113281 L 377.042969 237.113281 C 377.042969 182.328125 332.597656 137.921875 277.769531 137.921875 Z M 164.378906 99.195312 L 277.769531 99.195312 C 305.179688 99.195312 330.003906 88.097656 347.96875 70.148438 C 365.933594 52.199219 377.042969 27.398438 377.042969 0.015625 L 263.65625 0.015625 C 208.828125 0.015625 164.378906 44.417969 164.378906 99.195312 Z M 99.449219 275.839844 L 212.835938 275.839844 C 212.835938 303.226562 201.726562 328.027344 183.761719 345.972656 C 165.796875 363.921875 140.972656 375.019531 113.558594 375.019531 L 0.171875 375.019531 C 0.171875 320.242188 44.621094 275.839844 99.449219 275.839844 " fill-opacity="1" fill-rule="nonzero"/><path fill="rgb(92.158508%, 11.369324%, 15.289307%)" d="M 48.375 0 C 21.660156 0 0 21.660156 0 48.375 C 0 75.089844 21.660156 96.75 48.375 96.75 C 75.089844 96.75 96.75 75.089844 96.75 48.375 C 96.75 21.660156 75.089844 0 48.375 0 " fill-opacity="1" fill-rule="nonzero"/><path fill="rgb(92.158508%, 11.369324%, 15.289307%)" d="M 328.40625 278.144531 C 301.6875 278.144531 280.03125 299.804688 280.03125 326.519531 C 280.03125 353.238281 301.6875 374.894531 328.40625 374.894531 C 355.121094 374.894531 376.78125 353.238281 376.78125 326.519531 C 376.78125 299.804688 355.121094 278.144531 328.40625 278.144531 " fill-opacity="1" fill-rule="nonzero"/></svg>